<svg width="1200" height="750" viewBox="0 0 1200 750" fill="none" xmlns="http://www.w3.org/2000/svg" role="img" aria-labelledby="title desc">
<title id="title">TAMIAS project preview</title>
<desc id="desc">Representative visual card for TAMIAS.</desc>
<rect width="1200" height="750" fill="#020617"/>
<circle cx="210" cy="110" r="260" fill="#0ea5e9" opacity="0.22"/>
<circle cx="1040" cy="670" r="330" fill="#6366f1" opacity="0.25"/>
<circle cx="720" cy="60" r="260" fill="#14b8a6" opacity="0.12"/>
<rect x="70" y="64" width="1060" height="622" rx="36" fill="rgba(15,23,42,0.76)" stroke="rgba(148,163,184,0.24)"/>
<rect x="102" y="104" width="996" height="72" rx="22" fill="rgba(255,255,255,0.07)"/>
<circle cx="140" cy="140" r="10" fill="#38bdf8"/>
<circle cx="172" cy="140" r="10" fill="#818cf8"/>
<circle cx="204" cy="140" r="10" fill="#2dd4bf"/>
<text x="246" y="148" fill="#e2e8f0" font-family="Arial, sans-serif" font-size="22" font-weight="700">juantzun.dev / tamias</text>
<rect x="102" y="214" width="462" height="306" rx="28" fill="rgba(255,255,255,0.08)" stroke="rgba(148,163,184,0.18)"/>
<text x="138" y="274" fill="#f8fafc" font-family="Arial, sans-serif" font-size="48" font-weight="800">TAMIAS</text>
<text x="140" y="324" fill="#93c5fd" font-family="Arial, sans-serif" font-size="24" font-weight="700">Operations · Reservations · AI</text>
<rect x="140" y="362" width="348" height="10" rx="5" fill="#38bdf8" opacity="0.75"/>
<rect x="140" y="386" width="292" height="10" rx="5" fill="#818cf8" opacity="0.65"/>
<rect x="620" y="214" width="438" height="306" rx="28" fill="rgba(2,6,23,0.55)" stroke="rgba(148,163,184,0.2)"/>
<rect x="660" y="258" width="160" height="92" rx="22" fill="rgba(14,165,233,0.18)" stroke="rgba(125,211,252,0.28)"/>
<rect x="852" y="258" width="160" height="92" rx="22" fill="rgba(99,102,241,0.20)" stroke="rgba(165,180,252,0.28)"/>
<rect x="660" y="382" width="352" height="24" rx="12" fill="rgba(255,255,255,0.14)"/>
<rect x="660" y="426" width="286" height="24" rx="12" fill="rgba(255,255,255,0.10)"/>
<path d="M690 334 L735 292 L778 318 L802 282" stroke="#7dd3fc" stroke-width="10" stroke-linecap="round" stroke-linejoin="round"/>
<path d="M884 326 L930 290 L978 330" stroke="#a5b4fc" stroke-width="10" stroke-linecap="round" stroke-linejoin="round"/>
<text x="660" y="478" fill="#cbd5e1" font-family="Arial, sans-serif" font-size="22" font-weight="700">AI assistant</text>
<rect x="76" y="394" width="142" height="42" rx="21" fill="rgba(255,255,255,0.10)" stroke="rgba(255,255,255,0.18)"/>
<text x="94" y="421" fill="#cbd5e1" font-family="Arial, sans-serif" font-size="16" font-weight="700">Reservations</text>
<rect x="234" y="394" width="133" height="42" rx="21" fill="rgba(255,255,255,0.10)" stroke="rgba(255,255,255,0.18)"/>
<text x="252" y="421" fill="#cbd5e1" font-family="Arial, sans-serif" font-size="16" font-weight="700">Maintenance</text>
<rect x="383" y="394" width="115" height="42" rx="21" fill="rgba(255,255,255,0.10)" stroke="rgba(255,255,255,0.18)"/>
<text x="401" y="421" fill="#cbd5e1" font-family="Arial, sans-serif" font-size="16" font-weight="700">Inventory</text>

<rect x="76" y="590" width="1048" height="2" fill="rgba(148,163,184,0.18)"/>
<text x="76" y="638" fill="#94a3b8" font-family="Arial, sans-serif" font-size="22" font-weight="700">Full-stack product preview · Java · Angular · PostgreSQL · AI</text>
</svg>
