<svg xmlns="http://www.w3.org/2000/svg" viewBox="0 0 64 64" role="img" aria-labelledby="title">
  <title id="title">Java logo</title>
  <path fill="#f89820" d="M29.3 44.8s-3.2 1.9 2.3 2.5c6.7.8 10.1.7 17.5-.7 0 0 1.9 1.2 4.6 2.2-16.3 7-36.8-.4-24.4-4Z"/>
  <path fill="#5382a1" d="M27.3 35.7s-3.6 2.7 1.9 3.3c7.1.7 12.8.8 22.5-1.1 0 0 1.3 1.4 3.3 2.1-19.9 5.8-42.1.5-27.7-4.3Z"/>
  <path fill="#f89820" d="M44.3 7.3s-12.2 3.1-13 9.8c-.4 3 3.5 4.6 3.7 7.1.2 4.1-5.5 7.7-5.5 7.7s8.4-4.3 7.2-9.7c-.5-2.5-4.5-4.6-3.6-7.4.8-2.8 11.2-7.5 11.2-7.5Z"/>
  <path fill="#5382a1" d="M56.2 51.8s2.4 2-2.6 3.5c-9.5 2.9-39.5 3.8-47.9.1-3-1.3 2.6-3.1 4.4-3.5 1.8-.4 2.9-.4 2.9-.4-3.3-2.3-21.4 4.6-9.2 6.6 33.3 5.4 60.7-2.4 52.4-6.3Z"/>
  <path fill="#5382a1" d="M30.8 26.3s-15.2 3.6-5.4 4.9c4.1.6 12.4.5 20.1-.2 6.3-.5 12.6-1.6 12.6-1.6s-2.2 1-3.8 2.1c-15.4 4.1-45.1 2.2-36.6-2 7.2-3.5 13.1-3.2 13.1-3.2Z"/>
  <path fill="#f89820" d="M58 41.5c15.6-8.1 8.4-15.9 3.4-14.8-1.2.3-1.8.5-1.8.5s.5-.8 1.4-1.1c10-3.5 17.7 10.4-3.2 15.9 0 0 .1-.2.2-.5Z"/>
</svg>