<svg xmlns="http://www.w3.org/2000/svg" viewBox="0 0 64 64" role="img" aria-labelledby="title">
  <title id="title">Java logo</title>
  <g fill="none" fill-rule="evenodd">
    <path
      fill="#e76f00"
      d="M30.8 5.4c3.8 4.1-1 7.8-3.1 10.9-1.5 2.2-.7 4.1 1.5 6.2 2.7 2.6 3.4 5.5-.8 9.4 1.2-3.2.5-5.1-1.7-7.3-3.1-3-4.7-5.7-1.2-10.3 2.2-2.9 6.6-5.5 5.3-8.9Zm10.7 0c4.4 4.7-1.2 8.9-3.5 12.4-1.7 2.5-.8 4.8 1.8 7.2 3.1 3 3.9 6.4-1 11 1.4-3.7.5-5.9-2-8.5-3.6-3.5-5.5-6.6-1.4-11.9 2.6-3.4 7.7-6.4 6.1-10.2Z"
    />
    <path
      fill="#5382a1"
      d="M18.7 37.5c-5.3 1.5-8.2 3.7-8.2 6.2 0 5.1 11.5 7.8 24.4 7.8s24.4-2.7 24.4-7.8c0-2.3-2.4-4.3-6.9-5.8l-1.6 2.2c2.4.8 3.8 1.8 3.8 2.9 0 2.6-8.8 4.8-19.7 4.8S15.2 45.6 15.2 43c0-1.2 1.9-2.4 5.1-3.2l-1.6-2.3Z"
    />
    <path
      fill="#5382a1"
      d="M22.5 42.8c3.6 1 8.2 1.5 12.8 1.5 5.3 0 10.5-.7 14.1-2l-2.1-2.5c-3.1.8-7.4 1.3-11.9 1.3-4.2 0-8.1-.4-11.1-1.1l-1.8 2.8Zm-2.1 8.7c4 1.4 9.2 2.1 14.9 2.1 6.3 0 12.2-.9 16.4-2.6l-2.2-2.2c-3.6 1.1-8.6 1.8-14.1 1.8-5.2 0-10-.6-13.6-1.7l-1.4 2.6Z"
    />
    <path
      fill="#e76f00"
      d="M15.7 57.2c4.8 1.7 11.6 2.7 19 2.7 10.5 0 19.5-1.9 23.3-4.7-1 4.3-11 7.4-23.3 7.4-9.2 0-17.3-1.8-21.2-4.5l2.2-.9Z"
    />
  </g>
</svg>
