<svg xmlns="http://www.w3.org/2000/svg" viewBox="0 0 64 64" role="img" aria-labelledby="title desc">
  <title id="title">AI</title>
  <desc id="desc">Artificial intelligence logo mark without background.</desc>
  <defs>
    <linearGradient id="ai-gradient" x1="9" y1="8" x2="55" y2="56" gradientUnits="userSpaceOnUse">
      <stop stop-color="#38BDF8"/>
      <stop offset="0.48" stop-color="#8B5CF6"/>
      <stop offset="1" stop-color="#F59E0B"/>
    </linearGradient>
  </defs>
  <path fill="url(#ai-gradient)" d="M32 5.5c1.7 7.9 6.6 12.8 14.5 14.5-7.9 1.7-12.8 6.6-14.5 14.5-1.7-7.9-6.6-12.8-14.5-14.5C25.4 18.3 30.3 13.4 32 5.5Z"/>
  <path fill="url(#ai-gradient)" d="M17.3 34.3c1 4.8 4 7.8 8.8 8.8-4.8 1-7.8 4-8.8 8.8-1-4.8-4-7.8-8.8-8.8 4.8-1 7.8-4 8.8-8.8ZM48.9 36.8c.7 3.2 2.7 5.2 5.9 5.9-3.2.7-5.2 2.7-5.9 5.9-.7-3.2-2.7-5.2-5.9-5.9 3.2-.7 5.2-2.7 5.9-5.9Z" opacity="0.95"/>
  <path fill="#111827" fill-opacity="0.82" d="M26.4 53.5 31.2 39h3.5l4.9 14.5h-3.3l-.9-3h-4.9l-.9 3h-3.2Zm4.9-5.7h3.3L33 42.4l-1.7 5.4Zm10.7 5.7V39h3.2v14.5H42Z"/>
</svg>
