<svg xmlns="http://www.w3.org/2000/svg" viewBox="0 0 32 32"><rect width="32" height="32" rx="8" fill="#2496ed"/><g fill="#fff"><rect x="8" y="14" width="3.4" height="3.2" rx=".4"/><rect x="12" y="14" width="3.4" height="3.2" rx=".4"/><rect x="16" y="14" width="3.4" height="3.2" rx=".4"/><rect x="12" y="10.4" width="3.4" height="3.2" rx=".4"/><rect x="16" y="10.4" width="3.4" height="3.2" rx=".4"/><rect x="20" y="14" width="3.4" height="3.2" rx=".4"/><path d="M7 18.5h17.4c-.7 4.1-3.7 6.4-8.5 6.4-4.4 0-7.6-2.1-8.9-6.4Z"/><path d="M24.2 15.4c1.3-.2 2.5.2 3.8 1.1-1 .4-2 .6-3.1.5"/></g></svg>