<svg xmlns="http://www.w3.org/2000/svg" viewBox="0 0 32 32"><rect width="32" height="32" rx="8" fill="#24292f"/><path d="M16 7.2a8.8 8.8 0 0 0-2.8 17.2c.4.1.6-.2.6-.5v-2c-2.4.5-2.9-1-2.9-1-.4-1-.9-1.3-.9-1.3-.8-.5.1-.5.1-.5.9.1 1.4.9 1.4.9.8 1.4 2.1 1 2.6.8.1-.6.3-1 .6-1.2-1.9-.2-3.9-1-3.9-4.3 0-1 .3-1.7.9-2.4-.1-.2-.4-1.1.1-2.3 0 0 .8-.2 2.5.9.7-.2 1.5-.3 2.3-.3s1.6.1 2.3.3c1.7-1.1 2.5-.9 2.5-.9.5 1.2.2 2.1.1 2.3.6.7.9 1.4.9 2.4 0 3.3-2 4-3.9 4.3.3.3.6.8.6 1.7v2.6c0 .3.2.6.6.5A8.8 8.8 0 0 0 16 7.2Z" fill="#fff"/></svg>