<svg xmlns="http://www.w3.org/2000/svg" viewBox="0 0 64 64" role="img" aria-labelledby="title desc">
  <title id="title">Java</title>
  <desc id="desc">Java technology logo mark without background.</desc>
  <path fill="#5382A1" d="M22.9 47.4c-5.9 1.6 3.6 4.9 11.2 3.4a26 26 0 0 0 6.4-1.9l3.5 2.2c-12.4 5.3-28.1-.3-21.1-3.7Zm-2.2-8c-6.7 2.5 3.5 5.3 13.2 4.5a30 30 0 0 0 8.3-1.8l3.1 2.4c-14.7 4.3-31.1.3-24.6-5.1Zm28 14.8c7.2-3.7 3.9-7.2 1.6-6.7-.6.1-.8.2-.8.2s.2-.3.6-.4c4.6-1.6 8.2 4.7-1.5 7.2l.1-.3ZM24.5 31.4c-6.4 2.7 2.8 5.2 12.2 4.6a22 22 0 0 0 6.7-1.4l3.3 2.3c-12 3.5-25.4.3-22.2-5.5Z"/>
  <path fill="#E76F00" d="M39.6 6.6s3.7 3.8-3.5 9.7c-5.8 4.7-1.3 7.4 0 10.5-3.4-3.1-5.9-5.8-4.2-8.3 2.5-3.8 9.4-5.6 7.7-11.9Zm-5.9 20.9c1.7 1.9-.5 3.7-.5 3.7s4.2-2.2 2.3-5c-1.8-2.6-3.2-3.9 4.3-8.3 0 0-11.8 2.9-6.1 9.6Z"/>
  <path fill="#5382A1" d="M49.7 36.9c1.1-1.3 2.2-2.5 2.2-4.1 0-2.9-3-4.3-3-4.3s1.4 2.4-2.5 4.9c-4.9 3.1-20.4 2.7-27.7.1-2.6-.9-4.5-2.2-4.5-3.6 0-2.7 3.3-5.1 3.3-5.1-7.4 3.1-4 7.3-1.6 8.7 6.4 3.7 24.9 3.9 33.8 3.4Z"/>
  <path fill="#5382A1" d="M16.7 55.7c8.1 5.2 25.9 4.7 33.8.3 1.4-.8 2.2-1.7 2.2-2.5 0-1.6-2-2.4-2-2.4s.8 1.2-.9 2.2c-5.6 3.5-24.2 4-32.2.7-2.8-1.1-.9-2.7-.9-2.7s-3.5 1.8 0 4.4Z"/>
</svg>
