<svg xmlns="http://www.w3.org/2000/svg" viewBox="0 0 32 32"><rect width="32" height="32" rx="8" fill="#111827"/><g fill="none" stroke="#fff" stroke-width="2" stroke-linecap="round" stroke-linejoin="round"><path d="M16 6.8c3.1 0 4.9 2.1 4.9 4.4 2.4.8 4 2.5 4 5 0 2.7-2 4.4-4.3 5-1 2.5-2.7 4-5.2 4-2.5 0-4.2-1.5-5-3.6-2.5-.7-4.2-2.4-4.2-5 0-2.5 1.6-4.3 3.8-5 .8-2.8 2.7-4.8 6-4.8Z"/><path d="M11.1 12.2 16 9.5l4.9 2.8v5.5L16 20.5l-4.9-2.8v-5.5Z"/><path d="m16 9.5 0 11m-4.9-8.3 9.8 5.6m0-5.5-9.8 5.4"/></g></svg>